<svg id="Layer_1" data-name="Layer 1" xmlns="http://www.w3.org/2000/svg" xmlns:xlink="http://www.w3.org/1999/xlink" viewBox="0 0 529.21 149.28"><defs><style>.cls-1{fill:none;}.cls-2{fill:url(#linear-gradient);}.cls-3{fill:url(#linear-gradient-2);}.cls-4{fill:url(#linear-gradient-3);}.cls-5{fill:url(#linear-gradient-4);}.cls-6{fill:#f9f8f7;stroke:#fdfefe;opacity:0.4;}.cls-7{fill:#231f20;}</style><linearGradient id="linear-gradient" x1="71.57" y1="130.69" x2="100.09" y2="30.64" gradientUnits="userSpaceOnUse"><stop offset="0" stop-color="#74c3e1"/><stop offset="0.29" stop-color="#3a8ca9"/><stop offset="0.55" stop-color="#005572"/><stop offset="1" stop-color="#b03b20"/></linearGradient><linearGradient id="linear-gradient-2" x1="43.61" y1="125.36" x2="-0.18" y2="127.56" gradientUnits="userSpaceOnUse"><stop offset="0" stop-color="#f8cc2f"/><stop offset="0.24" stop-color="#f9b827"/><stop offset="0.41" stop-color="#faa620"/><stop offset="0.47" stop-color="#f09520"/><stop offset="0.63" stop-color="#d86d21"/><stop offset="0.78" stop-color="#c75022"/><stop offset="0.91" stop-color="#bd3e22"/><stop offset="1" stop-color="#b93822"/></linearGradient><linearGradient id="linear-gradient-3" x1="68.13" y1="154.71" x2="67.81" y2="233.23" gradientUnits="userSpaceOnUse"><stop offset="0" stop-color="#f37c91"/><stop offset="0.16" stop-color="#e2698d"/><stop offset="0.5" stop-color="#b63781"/><stop offset="0.5" stop-color="#b63781"/><stop offset="1" stop-color="#58124a"/></linearGradient><linearGradient id="linear-gradient-4" x1="73.12" y1="138.47" x2="183.87" y2="156.08" gradientUnits="userSpaceOnUse"><stop offset="0" stop-color="#aad26d"/><stop offset="0.11" stop-color="#a5cf6d"/><stop offset="0.24" stop-color="#97c76b"/><stop offset="0.38" stop-color="#80b96a"/><stop offset="0.53" stop-color="#60a767"/><stop offset="0.67" stop-color="#378e64"/><stop offset="0.77" stop-color="#177c61"/><stop offset="0.81" stop-color="#18775c" stop-opacity="0.99"/><stop offset="0.86" stop-color="#1c6750" stop-opacity="0.96"/><stop offset="0.91" stop-color="#224e3a" stop-opacity="0.91"/><stop offset="0.97" stop-color="#2a2a1d" stop-opacity="0.85"/><stop offset="1" stop-color="#301209" stop-opacity="0.8"/></linearGradient></defs><title>MaS_long</title><path class="cls-1" d="M5.83,162.78" transform="translate(-18.81 -67.89)"/><path class="cls-2" d="M132.82,79.32A73.6,73.6,0,0,0,34.43,97.49c9.43,10.48,18.83,21.67,28.09,33.58A533.61,533.61,0,0,0,132.82,79.32Z" transform="translate(-18.81 -67.89)"/><path class="cls-3" d="M61.61,131.44C52.35,119.53,43,108.35,33.52,97.87a73.62,73.62,0,0,0-14.71,44.28,74.46,74.46,0,0,0,1.05,12.4q4.89-2.42,9.82-5Q46.33,140.89,61.61,131.44Z" transform="translate(-18.81 -67.89)"/><path class="cls-4" d="M30.42,150.69q-4.94,2.56-9.81,5a73.69,73.69,0,0,0,94.8,58.1,588.61,588.61,0,0,0-53.06-81.21Q47.07,142,30.42,150.69Z" transform="translate(-18.81 -67.89)"/><path class="cls-5" d="M133.83,80.27A533,533,0,0,1,63.53,132a588.13,588.13,0,0,1,53.06,81.22,74,74,0,0,0,17.24-133Z" transform="translate(-18.81 -67.89)"/><path class="cls-6" d="M67,91.15c-13.25,8.33-35.91,32-37.23,34.66C38.35,145.94,45,158.19,53,170.29c26.48-4.32,68.66-27.23,68.66-27.23S93.41,96.11,67,91.15" transform="translate(-18.81 -67.89)"/><path class="cls-6" d="M41.26,122c1.52,12.57,13.49,32.83,16.61,35.62,10.44-2,45.11-18.28,45.11-18.28s-13.29-23.25-29.42-35.21C70.23,104.17,46.29,117.56,41.26,122Z" transform="translate(-18.81 -67.89)"/><path class="cls-6" d="M52,125.76c1,7.44,8.27,19.34,10.14,21,6.17-1.3,26.58-11.21,26.58-11.21S80.6,121.86,71,114.91C69,115,54.9,123.09,52,125.76Z" transform="translate(-18.81 -67.89)"/><path class="cls-7" d="M187.29,147.37l6.1-36.06h9.26l7.2,19.22L217,111.31h9.26l6.1,36.06h-9.3L220,126.61l-8.49,20.76h-3.72l-8.07-20.76-3.1,20.76Z" transform="translate(-18.81 -67.89)"/><path class="cls-7" d="M255.08,122.83h8.69v24.54h-8.69v-2.73a9,9,0,0,1-7.49,3.49,12.16,12.16,0,0,1-4.91-1,11.7,11.7,0,0,1-3.91-2.75,12.63,12.63,0,0,1-2.6-4.16,14.23,14.23,0,0,1-.93-5.21,13.94,13.94,0,0,1,.9-5,13,13,0,0,1,2.53-4.14,11.8,11.8,0,0,1,8.83-3.82,10,10,0,0,1,7.58,3.2ZM244.21,135a5.6,5.6,0,0,0,.43,2.22,5.34,5.34,0,0,0,1.17,1.79,5.15,5.15,0,0,0,1.76,1.2,5.6,5.6,0,0,0,2.22.43,5.53,5.53,0,0,0,2.17-.43,5.29,5.29,0,0,0,1.77-1.2,6.2,6.2,0,0,0,1.19-1.76,5.22,5.22,0,0,0,.45-2.16,5.34,5.34,0,0,0-.45-2.17,6.27,6.27,0,0,0-1.19-1.8A5.41,5.41,0,0,0,252,130a5.53,5.53,0,0,0-2.17-.43,5.6,5.6,0,0,0-2.22.43,5.27,5.27,0,0,0-1.76,1.19,5.71,5.71,0,0,0-1.17,1.75A5.17,5.17,0,0,0,244.21,135Z" transform="translate(-18.81 -67.89)"/><path class="cls-7" d="M288.1,130.77a8,8,0,0,0-4.53-1.53,6.14,6.14,0,0,0-2.32.43,5.92,5.92,0,0,0-1.88,1.22,5.79,5.79,0,0,0-1.27,1.87,6.57,6.57,0,0,0,0,4.78,5.88,5.88,0,0,0,1.24,1.86,5.36,5.36,0,0,0,1.89,1.22,6.28,6.28,0,0,0,2.34.43,7.1,7.1,0,0,0,4.53-1.67v7.36a15.15,15.15,0,0,1-6.06,1.39,14.16,14.16,0,0,1-5.08-.91,12.65,12.65,0,0,1-7.18-6.67,12.44,12.44,0,0,1-1.1-5.28,13.25,13.25,0,0,1,1.05-5.34,12.57,12.57,0,0,1,7.18-6.88,14.68,14.68,0,0,1,5.37-1,12.71,12.71,0,0,1,5.82,1.34Z" transform="translate(-18.81 -67.89)"/><path class="cls-7" d="M293,122.83h8.64v4a9.84,9.84,0,0,1,3.39-3.37,9.07,9.07,0,0,1,4.67-1.17h.74a5.58,5.58,0,0,1,.93.09v8.28a8.08,8.08,0,0,0-3.72-.86,5.54,5.54,0,0,0-4.51,1.79,8,8,0,0,0-1.5,5.24v10.52H293Z" transform="translate(-18.81 -67.89)"/><path class="cls-7" d="M314.48,134.88a12,12,0,0,1,1.1-5.09,12.47,12.47,0,0,1,3.05-4.11,14.66,14.66,0,0,1,4.66-2.75,16.71,16.71,0,0,1,5.89-1,17,17,0,0,1,5.84,1,14.64,14.64,0,0,1,4.68,2.73,12.15,12.15,0,0,1,3.07,4.16,12.62,12.62,0,0,1,1.1,5.33,12.49,12.49,0,0,1-1.12,5.34,12.68,12.68,0,0,1-3.08,4.16,13.82,13.82,0,0,1-4.7,2.7,17.83,17.83,0,0,1-5.94,1,17.08,17.08,0,0,1-5.82-1,13.48,13.48,0,0,1-4.6-2.73,12.62,12.62,0,0,1-3-4.23A13.34,13.34,0,0,1,314.48,134.88Zm9.11.1a5.58,5.58,0,0,0,.46,2.27,5.89,5.89,0,0,0,1.19,1.79,5.09,5.09,0,0,0,1.77,1.2,5.46,5.46,0,0,0,2.17.43,5.53,5.53,0,0,0,2.17-.43,5.15,5.15,0,0,0,1.76-1.2,5.92,5.92,0,0,0,1.2-1.79,5.6,5.6,0,0,0,0-4.4,6.18,6.18,0,0,0-1.2-1.79,5.29,5.29,0,0,0-1.76-1.2,5.71,5.71,0,0,0-2.17-.43,5.64,5.64,0,0,0-2.17.43,5.23,5.23,0,0,0-1.77,1.2,6.19,6.19,0,0,0-1.19,1.77A5.19,5.19,0,0,0,323.59,135Z" transform="translate(-18.81 -67.89)"/><path class="cls-7" d="M356.61,136.56q0,5.59,5.25,5.59a4.69,4.69,0,0,0,4.25-2.29h8.35q-2.54,8.41-12.65,8.41a16.63,16.63,0,0,1-5.68-.93,12.61,12.61,0,0,1-4.41-2.65,12,12,0,0,1-2.84-4.11,13.73,13.73,0,0,1-1-5.36,15.29,15.29,0,0,1,.95-5.52,11.73,11.73,0,0,1,2.72-4.19,12,12,0,0,1,4.27-2.65,16.19,16.19,0,0,1,5.66-.94,15.81,15.81,0,0,1,5.58.94,11.34,11.34,0,0,1,4.2,2.7,11.72,11.72,0,0,1,2.62,4.33,17,17,0,0,1,.91,5.76v.91Zm10.12-5a5.24,5.24,0,0,0-1.77-2.92,5.47,5.47,0,0,0-6.51-.05,4.72,4.72,0,0,0-1.6,3Z" transform="translate(-18.81 -67.89)"/><path class="cls-7" d="M398.17,130.77a8,8,0,0,0-4.54-1.53,6.12,6.12,0,0,0-2.31.43,5.81,5.81,0,0,0-1.88,1.22,5.49,5.49,0,0,0-1.27,1.87,6.57,6.57,0,0,0,0,4.78,5.72,5.72,0,0,0,1.24,1.86,5.27,5.27,0,0,0,1.89,1.22,6.26,6.26,0,0,0,2.33.43,7.11,7.11,0,0,0,4.54-1.67v7.36a15.15,15.15,0,0,1-6.06,1.39,14.16,14.16,0,0,1-5.08-.91,12.65,12.65,0,0,1-7.18-6.67,12.29,12.29,0,0,1-1.1-5.28,13.25,13.25,0,0,1,1.05-5.34,12.57,12.57,0,0,1,7.18-6.88,14.68,14.68,0,0,1,5.37-1,12.74,12.74,0,0,1,5.82,1.34Z" transform="translate(-18.81 -67.89)"/><path class="cls-7" d="M402.13,134.88a12,12,0,0,1,1.09-5.09,12.36,12.36,0,0,1,3.06-4.11,14.5,14.5,0,0,1,4.65-2.75,16.75,16.75,0,0,1,5.89-1,17.1,17.1,0,0,1,5.85,1,14.7,14.7,0,0,1,4.67,2.73,12.18,12.18,0,0,1,3.08,4.16,12.77,12.77,0,0,1,1.1,5.33,12.49,12.49,0,0,1-1.13,5.34,12.65,12.65,0,0,1-3.07,4.16,13.92,13.92,0,0,1-4.7,2.7,17.87,17.87,0,0,1-5.94,1,17.08,17.08,0,0,1-5.82-1,13.52,13.52,0,0,1-4.61-2.73,12.62,12.62,0,0,1-3-4.23A13.34,13.34,0,0,1,402.13,134.88Zm9.11.1a5.58,5.58,0,0,0,.45,2.27,5.89,5.89,0,0,0,1.19,1.79,5.29,5.29,0,0,0,1.77,1.2,5.69,5.69,0,0,0,4.34,0,5.29,5.29,0,0,0,1.77-1.2,5.89,5.89,0,0,0,1.19-1.79,5.6,5.6,0,0,0,0-4.4,6.15,6.15,0,0,0-1.19-1.79,5.44,5.44,0,0,0-1.77-1.2,5.69,5.69,0,0,0-4.34,0,5.44,5.44,0,0,0-1.77,1.2,6.19,6.19,0,0,0-1.19,1.77A5.18,5.18,0,0,0,411.24,135Z" transform="translate(-18.81 -67.89)"/><path class="cls-7" d="M445.11,107.67v39.7h-8.63v-39.7Z" transform="translate(-18.81 -67.89)"/><path class="cls-7" d="M450.08,134.88a12,12,0,0,1,1.09-5.09,12.36,12.36,0,0,1,3.06-4.11,14.5,14.5,0,0,1,4.65-2.75,16.71,16.71,0,0,1,5.89-1,17,17,0,0,1,5.84,1,14.64,14.64,0,0,1,4.68,2.73,12.18,12.18,0,0,1,3.08,4.16,12.77,12.77,0,0,1,1.09,5.33,12.49,12.49,0,0,1-1.12,5.34,12.65,12.65,0,0,1-3.07,4.16,13.92,13.92,0,0,1-4.7,2.7,17.87,17.87,0,0,1-5.94,1,17.08,17.08,0,0,1-5.82-1,13.43,13.43,0,0,1-4.61-2.73,12.62,12.62,0,0,1-3-4.23A13.34,13.34,0,0,1,450.08,134.88Zm9.11.1a5.58,5.58,0,0,0,.45,2.27,5.89,5.89,0,0,0,1.19,1.79,5.29,5.29,0,0,0,1.77,1.2,5.69,5.69,0,0,0,4.34,0,5.29,5.29,0,0,0,1.77-1.2,5.89,5.89,0,0,0,1.19-1.79,5.6,5.6,0,0,0,0-4.4,6.15,6.15,0,0,0-1.19-1.79,5.44,5.44,0,0,0-1.77-1.2,5.69,5.69,0,0,0-4.34,0,5.44,5.44,0,0,0-1.77,1.2,6.19,6.19,0,0,0-1.19,1.77A5.18,5.18,0,0,0,459.19,135Z" transform="translate(-18.81 -67.89)"/><path class="cls-7" d="M511.81,122.83v22.86a25.59,25.59,0,0,1-.24,3.69,15.5,15.5,0,0,1-.66,2.86,9.16,9.16,0,0,1-1.79,2.95,12.15,12.15,0,0,1-2.94,2.36,15.31,15.31,0,0,1-3.89,1.58,18.4,18.4,0,0,1-4.7.57,18.09,18.09,0,0,1-5.24-.71,14.32,14.32,0,0,1-4.18-2,11.44,11.44,0,0,1-2.93-3,9.84,9.84,0,0,1-1.53-3.71h9.73q.92,2.44,4.11,2.44a5.48,5.48,0,0,0,4.17-1.53,5.94,5.94,0,0,0,1.46-4.26v-2.34a14.44,14.44,0,0,1-1.84,1.51,10.51,10.51,0,0,1-1.79,1,8.58,8.58,0,0,1-1.91.55,13.57,13.57,0,0,1-2.19.16,12.57,12.57,0,0,1-4.82-.9,11.28,11.28,0,0,1-3.79-2.54,11.08,11.08,0,0,1-2.48-3.9,13.74,13.74,0,0,1-.89-5,14.07,14.07,0,0,1,1-5.24A13.38,13.38,0,0,1,487,126a11.85,11.85,0,0,1,8.85-3.85,9.48,9.48,0,0,1,7.3,3.26v-2.59ZM492.44,135a5.6,5.6,0,0,0,.43,2.22A5.83,5.83,0,0,0,494,139a5.07,5.07,0,0,0,1.77,1.19,5.82,5.82,0,0,0,4.39,0A5.12,5.12,0,0,0,502,139a6.07,6.07,0,0,0,1.19-1.8,5.42,5.42,0,0,0,0-4.37,5.86,5.86,0,0,0-1.21-1.77,5.56,5.56,0,0,0-3.92-1.63,5,5,0,0,0-2.14.46,6.19,6.19,0,0,0-1.77,1.19,5.65,5.65,0,0,0-1.21,1.75A5,5,0,0,0,492.44,135Z" transform="translate(-18.81 -67.89)"/><path class="cls-7" d="M527,144,515.2,122.83h10l6.53,12.58,6.35-12.58H548l-19.65,36.78h-9.69Z" transform="translate(-18.81 -67.89)"/><path class="cls-7" d="M207,180.22h8.69v24.53H207V202a9,9,0,0,1-7.49,3.49,12.16,12.16,0,0,1-4.91-1,11.7,11.7,0,0,1-3.91-2.75,12.82,12.82,0,0,1-2.61-4.16,14.27,14.27,0,0,1-.93-5.21,13.94,13.94,0,0,1,.91-5,12.81,12.81,0,0,1,2.53-4.14,12,12,0,0,1,3.86-2.8,11.88,11.88,0,0,1,5-1,9.93,9.93,0,0,1,7.58,3.2Zm-10.88,12.2a5.85,5.85,0,0,0,.43,2.22,5.78,5.78,0,0,0,1.17,1.79,5.33,5.33,0,0,0,1.77,1.2,5.6,5.6,0,0,0,2.22.43,5.53,5.53,0,0,0,2.17-.43,5.29,5.29,0,0,0,1.76-1.2,6.43,6.43,0,0,0,1.2-1.77,5.18,5.18,0,0,0,.45-2.15,5.42,5.42,0,0,0-.45-2.18,6.38,6.38,0,0,0-1.2-1.79,5.12,5.12,0,0,0-1.76-1.19,5.53,5.53,0,0,0-2.17-.43,5.6,5.6,0,0,0-2.22.43,5.16,5.16,0,0,0-1.77,1.19,6,6,0,0,0-1.17,1.75A5.33,5.33,0,0,0,196.11,192.42Z" transform="translate(-18.81 -67.89)"/><path class="cls-7" d="M221.54,180.22h8.64v3.11a9.37,9.37,0,0,1,3.58-2.89,11,11,0,0,1,4.24-.75,10.6,10.6,0,0,1,4.42.84,8.87,8.87,0,0,1,3.12,2.37,6.74,6.74,0,0,1,1.43,2.77,14.24,14.24,0,0,1,.38,3.49v15.59h-8.63V192.37a13.7,13.7,0,0,0-.26-2.94,3.77,3.77,0,0,0-.93-1.8,3.27,3.27,0,0,0-1.29-.81,4.81,4.81,0,0,0-1.53-.24,4.25,4.25,0,0,0-3.36,1.32,5.44,5.44,0,0,0-1.17,3.75v13.1h-8.64Z" transform="translate(-18.81 -67.89)"/><path class="cls-7" d="M272.12,165.06h8.68v39.69h-8.68V202a9.06,9.06,0,0,1-7.49,3.49,11.94,11.94,0,0,1-8.83-3.78,12.79,12.79,0,0,1-2.6-4.16,14.71,14.71,0,0,1,0-10.16,12.42,12.42,0,0,1,2.51-4.14,11.88,11.88,0,0,1,3.88-2.8,12.07,12.07,0,0,1,5-1,10,10,0,0,1,7.59,3.2Zm-10.88,27.36a5.67,5.67,0,0,0,.43,2.22,5.45,5.45,0,0,0,1.17,1.79,5.29,5.29,0,0,0,1.76,1.2,5.63,5.63,0,0,0,2.22.43,5.49,5.49,0,0,0,2.17-.43,5.33,5.33,0,0,0,1.77-1.2,6.19,6.19,0,0,0,1.19-1.77,5.18,5.18,0,0,0,.45-2.15,5.42,5.42,0,0,0-.45-2.18,6.15,6.15,0,0,0-1.19-1.79,5.16,5.16,0,0,0-1.77-1.19,5.69,5.69,0,0,0-4.34,0,5.26,5.26,0,0,0-1.77,1.19,6.23,6.23,0,0,0-1.19,1.75A5,5,0,0,0,261.24,192.42Z" transform="translate(-18.81 -67.89)"/><path class="cls-7" d="M323.45,177.92a11.8,11.8,0,0,0-3.05-1.84,8.29,8.29,0,0,0-3-.59,4.77,4.77,0,0,0-3,.86,2.68,2.68,0,0,0-1.14,2.24,2.24,2.24,0,0,0,.57,1.58,4.83,4.83,0,0,0,1.5,1.08,12.79,12.79,0,0,0,2.1.79c.78.22,1.55.46,2.32.71a14.58,14.58,0,0,1,6.7,4.09,10.15,10.15,0,0,1,2.12,6.68,13,13,0,0,1-.93,5,10.4,10.4,0,0,1-2.72,3.85,12.42,12.42,0,0,1-4.39,2.48,18.18,18.18,0,0,1-5.89.89,21.63,21.63,0,0,1-12.64-4.07l4-7.55a16.18,16.18,0,0,0,4.16,2.77,9.86,9.86,0,0,0,4.05.91,4.82,4.82,0,0,0,3.41-1,3.28,3.28,0,0,0,.84-3.8,3,3,0,0,0-1-1.1,7.34,7.34,0,0,0-1.74-.94c-.71-.28-1.58-.6-2.6-1-1.21-.39-2.39-.81-3.55-1.27a11.16,11.16,0,0,1-3.1-1.84,8.58,8.58,0,0,1-2.2-2.9,10.16,10.16,0,0,1-.83-4.42,12.77,12.77,0,0,1,.88-4.85,10.69,10.69,0,0,1,2.48-3.73,11.15,11.15,0,0,1,3.91-2.42,14.89,14.89,0,0,1,5.18-.86,22.79,22.79,0,0,1,5.58.74,24.67,24.67,0,0,1,5.58,2.18Z" transform="translate(-18.81 -67.89)"/><path class="cls-7" d="M332.76,192.27a12,12,0,0,1,1.09-5.09,12.36,12.36,0,0,1,3.06-4.11,14.32,14.32,0,0,1,4.65-2.75,16.75,16.75,0,0,1,5.89-1,17,17,0,0,1,5.84,1A14.46,14.46,0,0,1,358,183a12.18,12.18,0,0,1,3.08,4.16,12.77,12.77,0,0,1,1.1,5.33A12.53,12.53,0,0,1,358,202a13.77,13.77,0,0,1-4.7,2.71,18.13,18.13,0,0,1-5.94.95,17.33,17.33,0,0,1-5.82-.95,13.52,13.52,0,0,1-4.61-2.73,12.62,12.62,0,0,1-3-4.23A13.34,13.34,0,0,1,332.76,192.27Zm9.11.1a5.61,5.61,0,0,0,.45,2.27,6,6,0,0,0,1.19,1.79,5.44,5.44,0,0,0,1.77,1.2,5.69,5.69,0,0,0,4.34,0,5.44,5.44,0,0,0,1.77-1.2,6,6,0,0,0,1.19-1.79,5.51,5.51,0,0,0,.45-2.22,5.39,5.39,0,0,0-.45-2.18,6,6,0,0,0-1.19-1.79,5.44,5.44,0,0,0-1.77-1.2,5.69,5.69,0,0,0-4.34,0,5.44,5.44,0,0,0-1.77,1.2,6.19,6.19,0,0,0-1.19,1.77A5.14,5.14,0,0,0,341.87,192.37Z" transform="translate(-18.81 -67.89)"/><path class="cls-7" d="M385.57,188.16a8,8,0,0,0-4.53-1.53,6.14,6.14,0,0,0-2.32.43,5.75,5.75,0,0,0-1.88,1.22,5.57,5.57,0,0,0-1.26,1.86,6.07,6.07,0,0,0-.46,2.42,5.93,5.93,0,0,0,.46,2.37,5.67,5.67,0,0,0,1.24,1.86A5.36,5.36,0,0,0,378.7,198a6.28,6.28,0,0,0,2.34.43,7.16,7.16,0,0,0,4.53-1.67v7.36a15.15,15.15,0,0,1-6.06,1.39,14.2,14.2,0,0,1-5.08-.91,12.74,12.74,0,0,1-7.18-6.67,12.46,12.46,0,0,1-1.1-5.29,13.24,13.24,0,0,1,1.05-5.33,12.65,12.65,0,0,1,7.18-6.88,14.47,14.47,0,0,1,5.37-1,12.83,12.83,0,0,1,5.82,1.33Z" transform="translate(-18.81 -67.89)"/><path class="cls-7" d="M389.91,170.8a4.8,4.8,0,0,1,.38-1.89,5.05,5.05,0,0,1,1-1.55,5.15,5.15,0,0,1,1.55-1.06,4.8,4.8,0,0,1,1.89-.38,4.71,4.71,0,0,1,1.88.38,4.91,4.91,0,0,1,1.55,1.06,4.73,4.73,0,0,1,1.05,1.55,4.77,4.77,0,0,1,0,3.78,5,5,0,0,1-2.6,2.6,4.55,4.55,0,0,1-1.88.39,4.63,4.63,0,0,1-1.89-.39,4.94,4.94,0,0,1-1.55-1,5.05,5.05,0,0,1-1-1.55A4.8,4.8,0,0,1,389.91,170.8Zm9.21,9.42v24.53h-8.63V180.22Z" transform="translate(-18.81 -67.89)"/><path class="cls-7" d="M412.81,194q0,5.6,5.25,5.59a4.69,4.69,0,0,0,4.25-2.29h8.35q-2.54,8.42-12.65,8.41a16.57,16.57,0,0,1-5.67-.93,12.81,12.81,0,0,1-4.42-2.65,11.92,11.92,0,0,1-2.84-4.12,13.86,13.86,0,0,1-1-5.35,15.17,15.17,0,0,1,1-5.53,11.52,11.52,0,0,1,2.72-4.18,11.92,11.92,0,0,1,4.27-2.65,15.9,15.9,0,0,1,5.65-.94,15.55,15.55,0,0,1,5.58.94,11.18,11.18,0,0,1,4.2,2.7,11.63,11.63,0,0,1,2.62,4.32A17.08,17.08,0,0,1,431,193V194Zm10.12-5a5.22,5.22,0,0,0-1.77-2.91,5.47,5.47,0,0,0-6.51,0,4.77,4.77,0,0,0-1.6,3Z" transform="translate(-18.81 -67.89)"/><path class="cls-7" d="M445.88,187.44v17.31h-8.64V187.44h-2.86v-7.22h2.86v-7.36h8.64v7.36h4.91v7.22Z" transform="translate(-18.81 -67.89)"/><path class="cls-7" d="M462.91,201.41l-11.83-21.19h10l6.53,12.58L474,180.22h9.92L464.24,217h-9.68Z" transform="translate(-18.81 -67.89)"/></svg>